<svg width="32" height="32" viewBox="0 0 32 32" fill="none" xmlns="http://www.w3.org/2000/svg">
<path fill-rule="evenodd" clip-rule="evenodd" d="M24.7845 20.0777L27.4117 6.94175C27.6915 5.54231 26.4577 4.30846 25.0583 4.58835L11.9223 7.21554C9.54716 7.69057 7.69057 9.54716 7.21554 11.9223L4.58835 25.0583C4.30846 26.4577 5.5423 27.6915 6.94175 27.4117L20.0777 24.7845C22.4528 24.3094 24.3094 22.4528 24.7845 20.0777ZM19.3334 15.9994C19.3334 17.8404 17.841 19.3328 16.0001 19.3328C14.1591 19.3328 12.6667 17.8404 12.6667 15.9994C12.6667 14.1585 14.1591 12.6661 16.0001 12.6661C17.841 12.6661 19.3334 14.1585 19.3334 15.9994ZM21.3334 15.9994C21.3334 18.9449 18.9456 21.3328 16.0001 21.3328C13.0546 21.3328 10.6667 18.9449 10.6667 15.9994C10.6667 13.0539 13.0546 10.6661 16.0001 10.6661C18.9456 10.6661 21.3334 13.0539 21.3334 15.9994Z" fill="white"/>
</svg>
