<svg width="33" height="32" viewBox="0 0 33 32" fill="none" xmlns="http://www.w3.org/2000/svg">
<path fill-rule="evenodd" clip-rule="evenodd" d="M5.21202 7.54535C4.33334 8.42403 4.33334 9.83824 4.33334 12.6667V19.3333C4.33334 22.1618 4.33334 23.576 5.21202 24.4547C6.0907 25.3333 7.50492 25.3333 10.3333 25.3333H22.3333C25.1618 25.3333 26.576 25.3333 27.4547 24.4547C28.3333 23.576 28.3333 22.1618 28.3333 19.3333V12.6667C28.3333 9.83824 28.3333 8.42403 27.4547 7.54535C26.576 6.66667 25.1618 6.66667 22.3333 6.66667H10.3333C7.50492 6.66667 6.0907 6.66667 5.21202 7.54535ZM8.88804 11.168C8.42851 10.8616 7.80765 10.9858 7.50129 11.4453C7.19494 11.9048 7.31911 12.5257 7.77864 12.8321L15.2239 17.7956C15.8957 18.2435 16.7709 18.2435 17.4427 17.7956L24.888 12.8321C25.3476 12.5257 25.4717 11.9048 25.1654 11.4453C24.859 10.9858 24.2382 10.8616 23.7786 11.168L16.3333 16.1315L8.88804 11.168Z" fill="white"/>
</svg>
