<svg width="20" height="20" viewBox="0 0 20 20" fill="none" xmlns="http://www.w3.org/2000/svg">
<path fill-rule="evenodd" clip-rule="evenodd" d="M17.3452 0.0612764C17.9563 -0.0474325 18.7931 -0.0798046 19.4365 0.563523C20.0798 1.20685 20.0474 2.04366 19.9387 2.65475C19.8319 3.25525 19.5808 4.00847 19.2974 4.85836L16.2168 14.1C15.7339 15.5488 15.3493 16.7027 14.9913 17.543C14.6548 18.3332 14.2297 19.1439 13.51 19.5575C12.4834 20.1475 11.2206 20.1475 10.1941 19.5575C9.47436 19.1439 9.04923 18.3332 8.71268 17.543C8.35475 16.7027 7.97015 15.5489 7.48722 14.1L7.47002 14.0484C7.25062 13.3902 7.19838 13.2634 7.13409 13.1677C7.05398 13.0485 6.95148 12.946 6.83228 12.8659C6.73663 12.8016 6.60976 12.7494 5.95158 12.53L5.89996 12.5128C4.45115 12.0299 3.29733 11.6453 2.45697 11.2873C1.66684 10.9508 0.856139 10.5256 0.442504 9.80595C-0.147501 8.77938 -0.147501 7.5166 0.442504 6.49003C0.856139 5.77034 1.66684 5.34521 2.45697 5.00866C3.29733 4.65073 4.45116 4.26613 5.89998 3.7832L15.1417 0.702628C15.9915 0.419246 16.7448 0.168099 17.3452 0.0612764ZM17.7337 2.24514C17.3135 2.3199 16.7177 2.51544 15.7637 2.83344L6.65302 5.87032C5.14106 6.37431 4.07357 6.73108 3.3262 7.04941C2.95612 7.20704 2.70866 7.33727 2.54575 7.44674C2.40699 7.53999 2.36771 7.59303 2.3644 7.59753C2.16941 7.9386 2.16941 8.35738 2.3644 8.69845C2.36771 8.70295 2.40699 8.75599 2.54575 8.84924C2.70866 8.95871 2.95612 9.08894 3.3262 9.24657C4.07357 9.5649 5.14106 9.92167 6.65302 10.4257C6.68754 10.4372 6.72179 10.4485 6.75575 10.4598C7.25306 10.625 7.691 10.7705 8.06963 11.0249C8.42722 11.2653 8.73472 11.5728 8.97506 11.9304C9.22954 12.309 9.375 12.7469 9.54018 13.2442C9.55146 13.2782 9.56284 13.3125 9.57434 13.347C10.0783 14.8589 10.4351 15.9264 10.7534 16.6738C10.9111 17.0439 11.0413 17.2913 11.1508 17.4542C11.244 17.593 11.297 17.6323 11.3015 17.6356C11.6426 17.8306 12.0614 17.8306 12.4025 17.6356C12.407 17.6323 12.4601 17.593 12.5533 17.4542C12.6627 17.2913 12.793 17.0439 12.9506 16.6738C13.2689 15.9264 13.6257 14.8589 14.1297 13.347L17.1666 4.23632C17.4846 3.28232 17.6801 2.6865 17.7549 2.26626C17.7564 2.25752 17.7579 2.249 17.7593 2.24072C17.751 2.24212 17.7425 2.24359 17.7337 2.24514ZM18.021 2.21951C18.021 2.21951 18.0171 2.21941 18.0107 2.21801C18.018 2.2186 18.021 2.21951 18.021 2.21951ZM17.782 1.98931C17.7806 1.98292 17.7805 1.97905 17.7805 1.97905C17.7805 1.97905 17.7814 1.98201 17.782 1.98931Z" fill="white"/>
</svg>
