<?xml version="1.0" encoding="utf-8"?>
<!-- Generator: Adobe Illustrator 27.9.0, SVG Export Plug-In . SVG Version: 6.00 Build 0)  -->
<svg version="1.1" id="Layer_1" xmlns="http://www.w3.org/2000/svg" xmlns:xlink="http://www.w3.org/1999/xlink" x="0px" y="0px"
	 viewBox="0 0 20 20" style="enable-background:new 0 0 20 20;" xml:space="preserve">
<style type="text/css">
	.st0{fill-rule:evenodd;clip-rule:evenodd;fill:#FFFFFF;}
</style>
<path class="st0" d="M2,8.9C2,5,5.1,2,8.9,2s6.9,3.1,6.9,6.9s-3.1,6.9-6.9,6.9S2,12.7,2,8.9z M8.9,0C4,0,0,4,0,8.9s4,8.9,8.9,8.9
	c2.1,0,3.9-0.7,5.5-1.9l3.8,3.8c0.4,0.4,1.1,0.4,1.6,0s0.4-1.1,0-1.6l-3.8-3.8c1.2-1.5,1.9-3.4,1.9-5.5C17.8,4,13.8,0,8.9,0z
	 M8.9,14c2.9,0,5.2-2.3,5.2-5.2s-2.3-5.2-5.2-5.2S3.7,6,3.7,8.9S6,14,8.9,14z"/>
</svg>
